<svg width="38" height="22" viewBox="0 0 38 22" fill="none" xmlns="http://www.w3.org/2000/svg">
<path d="M4.97979 3.00002V8.74802C5.17979 8.68402 5.35579 8.61202 5.50779 8.53202C5.66779 8.45202 5.80379 8.34402 5.91579 8.20802C6.03579 8.07202 6.13179 7.89602 6.20379 7.68002C6.28379 7.46402 6.34379 7.18802 6.38379 6.85202H6.82779C6.76379 7.27602 6.67979 7.62402 6.57579 7.89602C6.47979 8.16002 6.35579 8.37602 6.20379 8.54402C6.05979 8.70402 5.88379 8.83202 5.67579 8.92802C5.47579 9.01602 5.24379 9.10002 4.97979 9.18002V9.94802C4.97979 10.324 4.93979 10.64 4.85979 10.896C4.77979 11.16 4.66779 11.372 4.52379 11.532C4.38779 11.7 4.22779 11.82 4.04379 11.892C3.86779 11.964 3.67979 12 3.47979 12C3.07979 12 2.76779 11.884 2.54379 11.652C2.31979 11.428 2.20779 11.152 2.20779 10.824C2.20779 10.616 2.25179 10.428 2.33979 10.26C2.43579 10.092 2.55579 9.93602 2.69979 9.79202C2.85179 9.65602 3.01979 9.53202 3.20379 9.42002C3.39579 9.31602 3.58779 9.22402 3.77979 9.14402V8.11202C3.62779 8.32002 3.43579 8.49202 3.20379 8.62802C2.97979 8.76402 2.72379 8.83202 2.43579 8.83202C2.19579 8.83202 1.95179 8.78802 1.70379 8.70002C1.46379 8.60402 1.24379 8.45202 1.04379 8.24402C0.851789 8.03602 0.691789 7.76402 0.563789 7.42802C0.443789 7.09202 0.383789 6.68402 0.383789 6.20402C0.383789 5.84402 0.423789 5.47202 0.503789 5.08802C0.591789 4.70402 0.727789 4.35602 0.911789 4.04402C1.09579 3.72402 1.33179 3.46002 1.61979 3.25202C1.90779 3.04402 2.25579 2.94002 2.66379 2.94002C2.75979 2.94002 2.85979 2.95202 2.96379 2.97602C3.07579 2.99202 3.17979 3.02402 3.27579 3.07202C3.37979 3.12002 3.47579 3.18802 3.56379 3.27602C3.65179 3.35602 3.72379 3.45602 3.77979 3.57602V3.00002H4.97979ZM2.73579 7.92002C2.85579 7.92002 2.97579 7.88802 3.09579 7.82402C3.22379 7.76002 3.33579 7.67202 3.43179 7.56002C3.53579 7.44802 3.61979 7.31602 3.68379 7.16402C3.74779 7.01202 3.77979 6.84802 3.77979 6.67202V4.11602C3.72379 3.98802 3.63579 3.87202 3.51579 3.76802C3.40379 3.65602 3.25579 3.60002 3.07179 3.60002C2.81579 3.60002 2.59579 3.68402 2.41179 3.85202C2.22779 4.01202 2.07979 4.21602 1.96779 4.46402C1.85579 4.71202 1.77179 4.98402 1.71579 5.28002C1.66779 5.57602 1.64379 5.85602 1.64379 6.12002C1.64379 6.76802 1.73579 7.23202 1.91979 7.51202C2.11179 7.78402 2.38379 7.92002 2.73579 7.92002ZM3.25179 11.376C3.46779 11.376 3.60779 11.292 3.67179 11.124C3.74379 10.964 3.77979 10.744 3.77979 10.464V9.62402C3.37979 9.80802 3.09579 9.98802 2.92779 10.164C2.75979 10.348 2.67579 10.552 2.67579 10.776C2.67579 10.96 2.72379 11.104 2.81979 11.208C2.92379 11.32 3.06779 11.376 3.25179 11.376Z" fill="#833F00"/>
<path d="M7.57601 3.00002V4.00802C7.67201 3.86402 7.76401 3.72802 7.85201 3.60002C7.94801 3.47202 8.05201 3.36002 8.16401 3.26402C8.27601 3.16802 8.40001 3.09202 8.53601 3.03602C8.67201 2.97202 8.82401 2.94002 8.99201 2.94002C9.26401 2.94002 9.46401 3.01202 9.59201 3.15602C9.72001 3.29202 9.78401 3.46002 9.78401 3.66002C9.78401 3.78002 9.76401 3.88002 9.72401 3.96002C9.68401 4.04002 9.63601 4.10402 9.58001 4.15202C9.52401 4.20002 9.46401 4.23602 9.40001 4.26002C9.33601 4.27602 9.28001 4.28402 9.23201 4.28402C9.16001 4.28402 9.10001 4.26802 9.05201 4.23602C9.01201 4.20402 8.96801 4.17202 8.92001 4.14002C8.88001 4.10002 8.83201 4.06402 8.77601 4.03202C8.72001 4.00002 8.64801 3.98402 8.56001 3.98402C8.37601 3.98402 8.20001 4.04802 8.03201 4.17602C7.86401 4.30402 7.71201 4.44002 7.57601 4.58402V9.00002H6.37601V3.00002H7.57601Z" fill="#833F00"/>
<path d="M11.6193 3.00002V7.08002C11.6193 7.16002 11.6233 7.26002 11.6313 7.38002C11.6393 7.50002 11.6593 7.62002 11.6913 7.74002C11.7313 7.85202 11.7873 7.95202 11.8593 8.04002C11.9313 8.12002 12.0313 8.16002 12.1593 8.16002C12.5513 8.16002 12.8393 7.72402 13.0233 6.85202H13.4673C13.3793 7.35602 13.2673 7.75602 13.1313 8.05202C12.9953 8.34002 12.8513 8.56002 12.6993 8.71202C12.5473 8.86402 12.3913 8.96002 12.2313 9.00002C12.0713 9.04802 11.9273 9.07202 11.7993 9.07202C11.5193 9.07202 11.2913 9.02002 11.1153 8.91602C10.9393 8.80402 10.7993 8.66402 10.6953 8.49602C10.5913 8.32802 10.5193 8.14002 10.4793 7.93202C10.4393 7.72402 10.4193 7.52402 10.4193 7.33202V3.00002H11.6193ZM10.2033 1.27202C10.2033 1.05602 10.2793 0.868018 10.4313 0.708017C10.5833 0.548018 10.7713 0.468018 10.9953 0.468018C11.2113 0.468018 11.3993 0.548018 11.5593 0.708017C11.7193 0.868018 11.7993 1.05602 11.7993 1.27202C11.7993 1.49602 11.7193 1.68402 11.5593 1.83602C11.3993 1.98802 11.2113 2.06402 10.9953 2.06402C10.7713 2.06402 10.5833 1.98802 10.4313 1.83602C10.2793 1.68402 10.2033 1.49602 10.2033 1.27202Z" fill="#833F00"/>
<path d="M14.2088 3.00002V3.91202C14.3288 3.69602 14.4488 3.52402 14.5688 3.39602C14.6968 3.26002 14.8248 3.16002 14.9528 3.09602C15.0808 3.03202 15.2008 2.99202 15.3128 2.97602C15.4328 2.95202 15.5448 2.94002 15.6488 2.94002C16.0088 2.94002 16.2968 3.00802 16.5128 3.14402C16.7368 3.28002 16.9048 3.45602 17.0168 3.67202C17.1288 3.88002 17.2008 4.11202 17.2328 4.36802C17.2728 4.61602 17.2928 4.85602 17.2928 5.08802C17.2928 5.23202 17.2888 5.39202 17.2808 5.56802C17.2728 5.73602 17.2648 5.91202 17.2568 6.09602C17.2488 6.27202 17.2408 6.45202 17.2328 6.63602C17.2248 6.81202 17.2208 6.97602 17.2208 7.12802C17.2208 7.19202 17.2248 7.28402 17.2328 7.40402C17.2408 7.51602 17.2608 7.62802 17.2928 7.74002C17.3248 7.85202 17.3768 7.95202 17.4488 8.04002C17.5208 8.12002 17.6248 8.16002 17.7608 8.16002C17.9448 8.16002 18.1088 8.05602 18.2528 7.84802C18.4048 7.64002 18.5288 7.30802 18.6248 6.85202H19.0688C18.9808 7.35602 18.8688 7.75602 18.7328 8.05202C18.5968 8.34002 18.4528 8.56002 18.3008 8.71202C18.1488 8.86402 17.9968 8.96002 17.8448 9.00002C17.6928 9.04802 17.5528 9.07202 17.4248 9.07202C17.1688 9.07202 16.9528 9.02402 16.7768 8.92802C16.6008 8.82402 16.4568 8.68802 16.3448 8.52002C16.2328 8.35202 16.1488 8.15602 16.0928 7.93202C16.0448 7.70802 16.0208 7.47602 16.0208 7.23602C16.0208 7.16402 16.0208 7.03202 16.0208 6.84002C16.0288 6.64002 16.0328 6.42802 16.0328 6.20402C16.0408 5.98002 16.0448 5.76802 16.0448 5.56802C16.0528 5.36802 16.0568 5.22802 16.0568 5.14802C16.0568 4.89202 16.0368 4.68002 15.9968 4.51202C15.9568 4.34402 15.9008 4.21202 15.8288 4.11602C15.7568 4.02002 15.6728 3.95202 15.5768 3.91202C15.4888 3.87202 15.3928 3.85202 15.2888 3.85202C15.0408 3.85202 14.8248 3.95202 14.6408 4.15202C14.4648 4.35202 14.3208 4.68802 14.2088 5.16002V9.00002H13.0088V3.00002H14.2088Z" fill="#833F00"/>
<path d="M23.0384 0.600017V7.08002C23.0384 7.16002 23.0424 7.26002 23.0504 7.38002C23.0584 7.50002 23.0784 7.62002 23.1104 7.74002C23.1504 7.85202 23.2064 7.95202 23.2784 8.04002C23.3504 8.12002 23.4504 8.16002 23.5784 8.16002C23.9704 8.16002 24.2584 7.72402 24.4424 6.85202H24.8864C24.7984 7.35602 24.6864 7.75602 24.5504 8.05202C24.4144 8.34002 24.2704 8.56002 24.1184 8.71202C23.9664 8.86402 23.8104 8.96002 23.6504 9.00002C23.4904 9.04802 23.3464 9.07202 23.2184 9.07202C23.0344 9.07202 22.8744 9.04002 22.7384 8.97602C22.6104 8.91202 22.4984 8.82802 22.4024 8.72402C22.3144 8.62002 22.2424 8.50002 22.1864 8.36402C22.1304 8.22802 22.0864 8.08402 22.0544 7.93202C21.9344 8.24402 21.7384 8.51202 21.4664 8.73602C21.2024 8.96002 20.8784 9.07202 20.4944 9.07202C20.2544 9.07202 20.0104 9.02402 19.7624 8.92802C19.5224 8.83202 19.3024 8.67602 19.1024 8.46002C18.9104 8.23602 18.7504 7.95202 18.6224 7.60802C18.5024 7.25602 18.4424 6.82802 18.4424 6.32402C18.4424 5.95602 18.4824 5.57202 18.5624 5.17202C18.6504 4.77202 18.7864 4.40802 18.9704 4.08002C19.1544 3.75202 19.3904 3.48002 19.6784 3.26402C19.9664 3.04802 20.3144 2.94002 20.7224 2.94002C20.8184 2.94002 20.9184 2.95202 21.0224 2.97602C21.1344 2.99202 21.2384 3.02402 21.3344 3.07202C21.4384 3.12002 21.5344 3.18802 21.6224 3.27602C21.7104 3.35602 21.7824 3.45602 21.8384 3.57602V0.768017L23.0384 0.600017ZM20.7944 8.16002C20.9144 8.16002 21.0344 8.12802 21.1544 8.06402C21.2824 7.99202 21.3944 7.90002 21.4904 7.78802C21.5944 7.66802 21.6784 7.52802 21.7424 7.36802C21.8064 7.20802 21.8384 7.03602 21.8384 6.85202V4.11602C21.7824 3.98802 21.6944 3.87202 21.5744 3.76802C21.4624 3.65602 21.3144 3.60002 21.1304 3.60002C20.8744 3.60002 20.6544 3.68802 20.4704 3.86402C20.2864 4.03202 20.1384 4.24802 20.0264 4.51202C19.9144 4.76802 19.8304 5.05202 19.7744 5.36402C19.7264 5.66802 19.7024 5.96002 19.7024 6.24002C19.7024 6.92802 19.7944 7.42002 19.9784 7.71602C20.1704 8.01202 20.4424 8.16002 20.7944 8.16002Z" fill="#833F00"/>
<path d="M25.6466 3.00002V7.08002C25.6466 7.16002 25.6506 7.26002 25.6586 7.38002C25.6666 7.50002 25.6866 7.62002 25.7186 7.74002C25.7586 7.85202 25.8146 7.95202 25.8866 8.04002C25.9586 8.12002 26.0586 8.16002 26.1866 8.16002C26.5786 8.16002 26.8666 7.72402 27.0506 6.85202H27.4946C27.4066 7.35602 27.2946 7.75602 27.1586 8.05202C27.0226 8.34002 26.8786 8.56002 26.7266 8.71202C26.5746 8.86402 26.4186 8.96002 26.2586 9.00002C26.0986 9.04802 25.9546 9.07202 25.8266 9.07202C25.5466 9.07202 25.3186 9.02002 25.1426 8.91602C24.9666 8.80402 24.8266 8.66402 24.7226 8.49602C24.6186 8.32802 24.5466 8.14002 24.5066 7.93202C24.4666 7.72402 24.4466 7.52402 24.4466 7.33202V3.00002H25.6466ZM24.2306 1.27202C24.2306 1.05602 24.3066 0.868018 24.4586 0.708017C24.6106 0.548018 24.7986 0.468018 25.0226 0.468018C25.2386 0.468018 25.4266 0.548018 25.5866 0.708017C25.7466 0.868018 25.8266 1.05602 25.8266 1.27202C25.8266 1.49602 25.7466 1.68402 25.5866 1.83602C25.4266 1.98802 25.2386 2.06402 25.0226 2.06402C24.7986 2.06402 24.6106 1.98802 24.4586 1.83602C24.3066 1.68402 24.2306 1.49602 24.2306 1.27202Z" fill="#833F00"/>
<path d="M28.2362 3.00002V3.91202C28.3562 3.69602 28.4762 3.52402 28.5962 3.39602C28.7242 3.26002 28.8522 3.16002 28.9802 3.09602C29.1082 3.03202 29.2282 2.99202 29.3402 2.97602C29.4602 2.95202 29.5722 2.94002 29.6762 2.94002C30.0362 2.94002 30.3242 3.00802 30.5402 3.14402C30.7642 3.28002 30.9322 3.45602 31.0442 3.67202C31.1562 3.88002 31.2282 4.11202 31.2602 4.36802C31.3002 4.61602 31.3202 4.85602 31.3202 5.08802C31.3202 5.23202 31.3162 5.39202 31.3082 5.56802C31.3002 5.73602 31.2922 5.91202 31.2842 6.09602C31.2762 6.27202 31.2682 6.45202 31.2602 6.63602C31.2522 6.81202 31.2482 6.97602 31.2482 7.12802C31.2482 7.19202 31.2522 7.28402 31.2602 7.40402C31.2682 7.51602 31.2882 7.62802 31.3202 7.74002C31.3522 7.85202 31.4042 7.95202 31.4762 8.04002C31.5482 8.12002 31.6522 8.16002 31.7882 8.16002C31.9722 8.16002 32.1362 8.05602 32.2802 7.84802C32.4322 7.64002 32.5562 7.30802 32.6522 6.85202H33.0962C33.0082 7.35602 32.8962 7.75602 32.7602 8.05202C32.6242 8.34002 32.4802 8.56002 32.3282 8.71202C32.1762 8.86402 32.0242 8.96002 31.8722 9.00002C31.7202 9.04802 31.5802 9.07202 31.4522 9.07202C31.1962 9.07202 30.9802 9.02402 30.8042 8.92802C30.6282 8.82402 30.4842 8.68802 30.3722 8.52002C30.2602 8.35202 30.1762 8.15602 30.1202 7.93202C30.0722 7.70802 30.0482 7.47602 30.0482 7.23602C30.0482 7.16402 30.0482 7.03202 30.0482 6.84002C30.0562 6.64002 30.0602 6.42802 30.0602 6.20402C30.0682 5.98002 30.0722 5.76802 30.0722 5.56802C30.0802 5.36802 30.0842 5.22802 30.0842 5.14802C30.0842 4.89202 30.0642 4.68002 30.0242 4.51202C29.9842 4.34402 29.9282 4.21202 29.8562 4.11602C29.7842 4.02002 29.7002 3.95202 29.6042 3.91202C29.5162 3.87202 29.4202 3.85202 29.3162 3.85202C29.0682 3.85202 28.8522 3.95202 28.6682 4.15202C28.4922 4.35202 28.3482 4.68802 28.2362 5.16002V9.00002H27.0362V3.00002H28.2362Z" fill="#833F00"/>
<path d="M37.0657 3.00002V9.94802C37.0657 10.324 37.0257 10.64 36.9457 10.896C36.8657 11.16 36.7537 11.372 36.6097 11.532C36.4737 11.7 36.3137 11.82 36.1297 11.892C35.9537 11.964 35.7657 12 35.5657 12C35.1657 12 34.8537 11.884 34.6297 11.652C34.4057 11.428 34.2937 11.152 34.2937 10.824C34.2937 10.616 34.3377 10.428 34.4257 10.26C34.5217 10.092 34.6417 9.93602 34.7857 9.79202C34.9377 9.65602 35.1057 9.53202 35.2897 9.42002C35.4817 9.31602 35.6737 9.22402 35.8657 9.14402V8.11202C35.7137 8.32002 35.5217 8.49202 35.2897 8.62802C35.0657 8.76402 34.8097 8.83202 34.5217 8.83202C34.2817 8.83202 34.0377 8.78802 33.7897 8.70002C33.5497 8.60402 33.3297 8.45202 33.1297 8.24402C32.9377 8.03602 32.7777 7.76402 32.6497 7.42802C32.5297 7.09202 32.4697 6.68402 32.4697 6.20402C32.4697 5.84402 32.5097 5.47202 32.5897 5.08802C32.6777 4.70402 32.8137 4.35602 32.9977 4.04402C33.1817 3.72402 33.4177 3.46002 33.7057 3.25202C33.9937 3.04402 34.3417 2.94002 34.7497 2.94002C34.8457 2.94002 34.9457 2.95202 35.0497 2.97602C35.1617 2.99202 35.2657 3.02402 35.3617 3.07202C35.4657 3.12002 35.5617 3.18802 35.6497 3.27602C35.7377 3.35602 35.8097 3.45602 35.8657 3.57602V3.00002H37.0657ZM34.8217 7.92002C34.9417 7.92002 35.0617 7.88802 35.1817 7.82402C35.3097 7.76002 35.4217 7.67202 35.5177 7.56002C35.6217 7.44802 35.7057 7.31602 35.7697 7.16402C35.8337 7.01202 35.8657 6.84802 35.8657 6.67202V4.11602C35.8097 3.98802 35.7217 3.87202 35.6017 3.76802C35.4897 3.65602 35.3417 3.60002 35.1577 3.60002C34.9017 3.60002 34.6817 3.68402 34.4977 3.85202C34.3137 4.01202 34.1657 4.21602 34.0537 4.46402C33.9417 4.71202 33.8577 4.98402 33.8017 5.28002C33.7537 5.57602 33.7297 5.85602 33.7297 6.12002C33.7297 6.76802 33.8217 7.23202 34.0057 7.51202C34.1977 7.78402 34.4697 7.92002 34.8217 7.92002ZM35.3377 11.376C35.5537 11.376 35.6937 11.292 35.7577 11.124C35.8297 10.964 35.8657 10.744 35.8657 10.464V9.62402C35.4657 9.80802 35.1817 9.98802 35.0137 10.164C34.8457 10.348 34.7617 10.552 34.7617 10.776C34.7617 10.96 34.8097 11.104 34.9057 11.208C35.0097 11.32 35.1537 11.376 35.3377 11.376Z" fill="#833F00"/>
<path d="M16.1664 14.836C16.2304 14.78 16.2784 14.692 16.3104 14.572C16.3504 14.444 16.3704 14.324 16.3704 14.212C16.3704 14.028 16.3104 13.876 16.1904 13.756C16.0784 13.636 15.9184 13.576 15.7104 13.576C15.4944 13.576 15.3144 13.656 15.1704 13.816C15.0264 13.976 14.9104 14.18 14.8224 14.428C14.7344 14.668 14.6704 14.94 14.6304 15.244C14.5984 15.54 14.5824 15.832 14.5824 16.12C14.5824 16.544 14.6184 16.888 14.6904 17.152C14.7704 17.416 14.8744 17.624 15.0024 17.776C15.1304 17.92 15.2784 18.02 15.4464 18.076C15.6224 18.132 15.8064 18.16 15.9984 18.16C16.4224 18.16 16.7784 18.056 17.0664 17.848C17.3624 17.632 17.6144 17.3 17.8224 16.852H18.2304C18.1344 17.148 17.9984 17.432 17.8224 17.704C17.6464 17.968 17.4424 18.204 17.2104 18.412C16.9784 18.612 16.7264 18.772 16.4544 18.892C16.1824 19.012 15.8984 19.072 15.6024 19.072C15.3224 19.072 15.0464 19.024 14.7744 18.928C14.5024 18.832 14.2584 18.676 14.0424 18.46C13.8264 18.236 13.6504 17.948 13.5144 17.596C13.3784 17.236 13.3104 16.796 13.3104 16.276C13.3104 15.94 13.3384 15.58 13.3944 15.196C13.4584 14.804 13.5704 14.444 13.7304 14.116C13.8984 13.78 14.1264 13.5 14.4144 13.276C14.7024 13.052 15.0744 12.94 15.5304 12.94C16.0344 12.94 16.4184 13.064 16.6824 13.312C16.9464 13.552 17.0784 13.908 17.0784 14.38C17.0784 14.58 17.0384 14.748 16.9584 14.884C16.8864 15.02 16.7704 15.088 16.6104 15.088C16.4344 15.088 16.2864 15.004 16.1664 14.836Z" fill="#833F00"/>
<path d="M20.0095 12.94C20.3215 12.94 20.5895 12.988 20.8135 13.084C21.0375 13.18 21.2215 13.316 21.3655 13.492C21.5095 13.66 21.6215 13.86 21.7015 14.092C21.7895 14.324 21.8535 14.572 21.8935 14.836H21.9655C22.3015 14.836 22.6095 14.768 22.8895 14.632C23.1695 14.496 23.4095 14.324 23.6095 14.116L23.7895 14.44C23.6295 14.696 23.3735 14.908 23.0215 15.076C22.6775 15.244 22.3215 15.36 21.9535 15.424C21.9535 15.504 21.9535 15.584 21.9535 15.664C21.9615 15.744 21.9655 15.828 21.9655 15.916C21.9655 16.9 21.7855 17.672 21.4255 18.232C21.0655 18.792 20.5615 19.072 19.9135 19.072C19.6495 19.072 19.3815 19.024 19.1095 18.928C18.8455 18.832 18.6055 18.672 18.3895 18.448C18.1735 18.224 17.9975 17.936 17.8615 17.584C17.7335 17.232 17.6695 16.796 17.6695 16.276C17.6695 15.924 17.7055 15.552 17.7775 15.16C17.8575 14.768 17.9855 14.408 18.1615 14.08C18.3455 13.752 18.5855 13.48 18.8815 13.264C19.1855 13.048 19.5615 12.94 20.0095 12.94ZM20.1295 18.16C20.5535 18.16 20.8655 17.952 21.0655 17.536C21.2655 17.112 21.3655 16.516 21.3655 15.748C21.3655 15.7 21.3655 15.652 21.3655 15.604C21.3655 15.556 21.3615 15.508 21.3535 15.46C21.1215 15.444 20.9535 15.392 20.8495 15.304C20.7535 15.216 20.7055 15.068 20.7055 14.86C20.7055 14.676 20.7455 14.548 20.8255 14.476C20.9055 14.396 21.0255 14.352 21.1855 14.344C21.0895 14.064 20.9655 13.872 20.8135 13.768C20.6695 13.656 20.5055 13.6 20.3215 13.6C20.0735 13.6 19.8615 13.684 19.6855 13.852C19.5175 14.012 19.3775 14.22 19.2655 14.476C19.1615 14.732 19.0855 15.016 19.0375 15.328C18.9895 15.632 18.9655 15.932 18.9655 16.228C18.9655 16.62 19.0015 16.94 19.0735 17.188C19.1455 17.436 19.2375 17.632 19.3495 17.776C19.4615 17.92 19.5855 18.02 19.7215 18.076C19.8575 18.132 19.9935 18.16 20.1295 18.16Z" fill="#833F00"/>
<path d="M24.6529 10C24.9569 10 25.2289 10.064 25.4689 10.192C25.7169 10.32 25.9089 10.544 26.0449 10.864C26.1969 10.584 26.4009 10.372 26.6569 10.228C26.9129 10.076 27.2089 10 27.5449 10C27.7769 10 27.9929 10.036 28.1929 10.108C28.4009 10.18 28.5769 10.292 28.7209 10.444C28.8729 10.596 28.9889 10.784 29.0689 11.008C29.1569 11.232 29.2009 11.496 29.2009 11.8H28.7329C28.6849 11.48 28.5969 11.228 28.4689 11.044C28.3489 10.86 28.1449 10.768 27.8569 10.768C27.6649 10.768 27.5129 10.812 27.4009 10.9C27.2889 10.98 27.2009 11.092 27.1369 11.236C27.0729 11.38 27.0289 11.556 27.0049 11.764C26.9889 11.964 26.9809 12.184 26.9809 12.424V13H27.9529V13.42H26.9809V19.96C26.9809 20.384 26.9289 20.728 26.8249 20.992C26.7209 21.256 26.5849 21.464 26.4169 21.616C26.2569 21.768 26.0769 21.868 25.8769 21.916C25.6769 21.972 25.4809 22 25.2889 22C24.9369 22 24.6489 21.928 24.4249 21.784C24.2089 21.648 24.0169 21.46 23.8489 21.22C23.7129 21.516 23.5329 21.72 23.3089 21.832C23.0849 21.944 22.8329 22 22.5529 22C22.1129 22 21.7929 21.896 21.5929 21.688C21.3849 21.488 21.2809 21.236 21.2809 20.932C21.2809 20.548 21.4289 20.212 21.7249 19.924C22.0129 19.636 22.3849 19.388 22.8409 19.18V12.088C22.8409 11.392 23.0089 10.872 23.3449 10.528C23.6809 10.176 24.1169 10 24.6529 10ZM24.0409 18.748C24.3289 18.66 24.6209 18.584 24.9169 18.52C25.2129 18.456 25.5009 18.396 25.7809 18.34V13.42H24.0409V18.748ZM25.7809 18.736C25.4449 18.8 25.1329 18.868 24.8449 18.94C24.5569 19.004 24.2889 19.072 24.0409 19.144V19.96C24.0409 20.296 24.0169 20.584 23.9689 20.824C24.2569 21.192 24.5889 21.376 24.9649 21.376C25.0689 21.376 25.1689 21.36 25.2649 21.328C25.3689 21.296 25.4569 21.228 25.5289 21.124C25.6089 21.028 25.6689 20.888 25.7089 20.704C25.7569 20.52 25.7809 20.28 25.7809 19.984V18.736ZM24.0409 13H25.7809V12.088C25.7809 11.584 25.7089 11.24 25.5649 11.056C25.4289 10.864 25.2249 10.768 24.9529 10.768C24.7529 10.768 24.5929 10.808 24.4729 10.888C24.3529 10.968 24.2609 11.084 24.1969 11.236C24.1329 11.38 24.0889 11.556 24.0649 11.764C24.0489 11.964 24.0409 12.184 24.0409 12.424V13ZM22.3009 21.376C22.5329 21.376 22.6809 21.252 22.7449 21.004C22.8089 20.756 22.8409 20.416 22.8409 19.984V19.624C22.4729 19.808 22.2009 20 22.0249 20.2C21.8409 20.408 21.7489 20.608 21.7489 20.8C21.7489 20.96 21.8009 21.096 21.9049 21.208C22.0089 21.32 22.1409 21.376 22.3009 21.376Z" fill="#833F00"/>
<path d="M32.4094 14.5C32.4094 15.06 32.1774 15.528 31.7134 15.904C31.2574 16.28 30.6214 16.512 29.8054 16.6C29.8374 16.92 29.8934 17.18 29.9734 17.38C30.0614 17.58 30.1654 17.74 30.2854 17.86C30.4054 17.972 30.5414 18.052 30.6934 18.1C30.8534 18.14 31.0174 18.16 31.1854 18.16C31.5694 18.16 31.9294 18.06 32.2654 17.86C32.6014 17.66 32.8734 17.324 33.0814 16.852H33.4654C33.3614 17.148 33.2174 17.432 33.0334 17.704C32.8494 17.968 32.6334 18.204 32.3854 18.412C32.1374 18.612 31.8694 18.772 31.5814 18.892C31.2934 19.012 30.9974 19.072 30.6934 19.072C30.4134 19.072 30.1414 19.024 29.8774 18.928C29.6214 18.832 29.3934 18.676 29.1934 18.46C28.9934 18.236 28.8294 17.948 28.7014 17.596C28.5814 17.244 28.5214 16.812 28.5214 16.3C28.5214 15.964 28.5574 15.6 28.6294 15.208C28.7094 14.816 28.8374 14.452 29.0134 14.116C29.1974 13.78 29.4334 13.5 29.7214 13.276C30.0174 13.052 30.3814 12.94 30.8134 12.94C31.0134 12.94 31.2054 12.964 31.3894 13.012C31.5814 13.052 31.7534 13.132 31.9054 13.252C32.0574 13.364 32.1774 13.52 32.2654 13.72C32.3614 13.92 32.4094 14.18 32.4094 14.5ZM29.7934 16.132C30.3614 16.044 30.8094 15.844 31.1374 15.532C31.4734 15.22 31.6414 14.836 31.6414 14.38C31.6414 14.076 31.5894 13.86 31.4854 13.732C31.3814 13.596 31.2334 13.528 31.0414 13.528C30.8334 13.528 30.6494 13.608 30.4894 13.768C30.3374 13.928 30.2094 14.136 30.1054 14.392C30.0014 14.64 29.9214 14.92 29.8654 15.232C29.8174 15.536 29.7934 15.836 29.7934 16.132Z" fill="#833F00"/>
<path d="M36.8273 14.5C36.8273 15.06 36.5953 15.528 36.1313 15.904C35.6753 16.28 35.0393 16.512 34.2233 16.6C34.2553 16.92 34.3113 17.18 34.3913 17.38C34.4793 17.58 34.5833 17.74 34.7033 17.86C34.8233 17.972 34.9593 18.052 35.1113 18.1C35.2713 18.14 35.4353 18.16 35.6033 18.16C35.8593 18.16 36.0993 18.116 36.3233 18.028C36.5553 17.94 36.7473 17.788 36.8993 17.572C36.9073 17.628 36.9113 17.684 36.9113 17.74C36.9193 17.788 36.9233 17.832 36.9233 17.872C36.9233 18.056 36.8753 18.22 36.7793 18.364C36.6913 18.508 36.5673 18.636 36.4073 18.748C36.2553 18.852 36.0753 18.932 35.8673 18.988C35.6673 19.044 35.4553 19.072 35.2313 19.072C34.9593 19.072 34.6873 19.024 34.4153 18.928C34.1433 18.824 33.8953 18.664 33.6713 18.448C33.4553 18.224 33.2793 17.936 33.1433 17.584C33.0073 17.232 32.9393 16.804 32.9393 16.3C32.9393 15.964 32.9753 15.6 33.0473 15.208C33.1273 14.816 33.2553 14.452 33.4313 14.116C33.6153 13.78 33.8513 13.5 34.1393 13.276C34.4353 13.052 34.7993 12.94 35.2313 12.94C35.4313 12.94 35.6233 12.964 35.8073 13.012C35.9993 13.052 36.1713 13.132 36.3233 13.252C36.4753 13.364 36.5953 13.52 36.6833 13.72C36.7793 13.92 36.8273 14.18 36.8273 14.5ZM34.2113 16.132C34.7793 16.044 35.2273 15.844 35.5553 15.532C35.8913 15.22 36.0593 14.836 36.0593 14.38C36.0593 14.076 36.0073 13.86 35.9033 13.732C35.7993 13.596 35.6513 13.528 35.4593 13.528C35.2513 13.528 35.0673 13.608 34.9073 13.768C34.7553 13.928 34.6273 14.136 34.5233 14.392C34.4193 14.64 34.3393 14.92 34.2833 15.232C34.2353 15.536 34.2113 15.836 34.2113 16.132Z" fill="#833F00"/>
</svg>
