<svg width="600" height="352" viewBox="0 0 600 352" fill="none" xmlns="http://www.w3.org/2000/svg">
<path d="M75.176 41.3873V135.342C78.4473 134.296 81.3261 133.119 83.8124 131.812C86.4295 130.504 88.654 128.739 90.486 126.516C92.4488 124.293 94.019 121.416 95.1967 117.885C96.5053 114.354 97.4867 109.843 98.1409 104.351H105.403C104.357 111.281 102.983 116.97 101.281 121.416C99.7112 125.731 97.6829 129.262 95.1967 132.008C92.8413 134.623 89.9625 136.715 86.5603 138.285C83.2889 139.723 79.4942 141.096 75.176 142.404V154.957C75.176 161.103 74.5217 166.268 73.2131 170.453C71.9046 174.768 70.0726 178.233 67.7172 180.849C65.4927 183.595 62.8756 185.556 59.866 186.733C56.9872 187.91 53.9121 188.498 50.6407 188.498C44.098 188.498 38.9947 186.602 35.3307 182.81C31.6668 179.149 29.8348 174.637 29.8348 169.276C29.8348 165.876 30.5545 162.803 31.9939 160.057C33.5642 157.311 35.527 154.761 37.8824 152.407C40.3686 150.184 43.1166 148.157 46.1262 146.327C49.2668 144.627 52.4073 143.123 55.5478 141.815V124.946C53.0615 128.346 49.921 131.158 46.1262 133.381C42.4623 135.604 38.275 136.715 33.5642 136.715C29.6386 136.715 25.6475 135.996 21.591 134.558C17.6654 132.989 14.0669 130.504 10.7955 127.104C7.65499 123.704 5.0379 119.258 2.94423 113.766C0.981409 108.274 0 101.605 0 93.7589C0 87.8744 0.654273 81.7938 1.96282 75.5171C3.40222 69.2403 5.62675 63.552 8.6364 58.4522C11.6461 53.2216 15.5063 48.9063 20.217 45.5064C24.9278 42.1065 30.62 40.4065 37.2936 40.4065C38.8638 40.4065 40.4995 40.6027 42.2006 40.995C44.0326 41.2565 45.7337 41.7796 47.3039 42.5642C49.005 43.3488 50.5753 44.4603 52.0147 45.8987C53.4541 47.2063 54.6318 48.8409 55.5478 50.8024V41.3873H75.176ZM38.4713 121.808C40.4341 121.808 42.3969 121.285 44.3597 120.239C46.4534 119.193 48.2853 117.754 49.8556 115.924C51.5567 114.093 52.9307 111.935 53.9775 109.451C55.0244 106.966 55.5478 104.285 55.5478 101.409V59.6291C54.6318 57.5368 53.1924 55.6407 51.2296 53.9408C49.3976 52.1101 46.9768 51.1947 43.9671 51.1947C39.7798 51.1947 36.1813 52.5677 33.1716 55.3138C30.162 57.9291 27.7412 61.2636 25.9092 65.3174C24.0772 69.3711 22.7033 73.8171 21.7873 78.6554C21.0022 83.4938 20.6096 88.0706 20.6096 92.3858C20.6096 102.978 22.1144 110.562 25.1241 115.139C28.2646 119.585 32.7136 121.808 38.4713 121.808ZM46.9114 178.299C50.4444 178.299 52.7344 176.926 53.7812 174.18C54.9589 171.564 55.5478 167.968 55.5478 163.391V149.661C49.005 152.669 44.3597 155.611 41.6118 158.488C38.8638 161.495 37.4898 164.83 37.4898 168.491C37.4898 171.499 38.275 173.853 39.8452 175.553C41.5463 177.383 43.9017 178.299 46.9114 178.299Z" fill="#FFEBDA"/>
<path d="M117.642 41.3873V57.8637C119.212 55.51 120.717 53.2869 122.156 51.1947C123.727 49.1024 125.428 47.2717 127.26 45.7025C129.092 44.1334 131.12 42.8911 133.344 41.9757C135.569 40.9296 138.055 40.4065 140.803 40.4065C145.252 40.4065 148.524 41.5834 150.617 43.9372C152.711 46.1602 153.758 48.9063 153.758 52.1754C153.758 54.1369 153.431 55.7715 152.776 57.0791C152.122 58.3868 151.337 59.4329 150.421 60.2175C149.505 61.0021 148.524 61.5905 147.477 61.9828C146.43 62.2444 145.514 62.3751 144.729 62.3751C143.551 62.3751 142.57 62.1136 141.785 61.5905C141.13 61.0675 140.411 60.5444 139.625 60.0214C138.971 59.3675 138.186 58.7791 137.27 58.256C136.354 57.733 135.176 57.4714 133.737 57.4714C130.727 57.4714 127.849 58.5176 125.101 60.6098C122.353 62.7021 119.866 64.9251 117.642 67.2788V139.461H98.0137V41.3873H117.642Z" fill="#FFEBDA"/>
<path d="M183.777 41.3873V108.078C183.777 109.385 183.842 111.02 183.973 112.981C184.104 114.943 184.431 116.904 184.954 118.866C185.609 120.697 186.525 122.331 187.702 123.77C188.88 125.077 190.516 125.731 192.609 125.731C199.021 125.731 203.732 118.604 206.742 104.351H214.004C212.565 112.589 210.733 119.127 208.508 123.966C206.284 128.673 203.928 132.269 201.442 134.754C198.956 137.238 196.404 138.808 193.787 139.461C191.17 140.246 188.814 140.638 186.721 140.638C182.141 140.638 178.412 139.788 175.533 138.088C172.654 136.258 170.364 133.969 168.663 131.223C166.962 128.477 165.784 125.404 165.13 122.004C164.476 118.604 164.148 115.335 164.148 112.197V41.3873H183.777ZM160.615 13.1419C160.615 9.61126 161.858 6.53828 164.345 3.92296C166.831 1.30765 169.906 0 173.57 0C177.103 0 180.178 1.30765 182.795 3.92296C185.412 6.53828 186.721 9.61126 186.721 13.1419C186.721 16.8034 185.412 19.8764 182.795 22.3609C180.178 24.8454 177.103 26.0877 173.57 26.0877C169.906 26.0877 166.831 24.8454 164.345 22.3609C161.858 19.8764 160.615 16.8034 160.615 13.1419Z" fill="#FFEBDA"/>
<path d="M226.134 41.3873V56.2945C228.096 52.7639 230.059 49.9524 232.022 47.8602C234.116 45.6372 236.209 44.0026 238.303 42.9565C240.397 41.9103 242.36 41.2565 244.192 40.995C246.154 40.6027 247.986 40.4065 249.687 40.4065C255.576 40.4065 260.287 41.518 263.82 43.7411C267.484 45.9641 270.232 48.8409 272.064 52.3716C273.896 55.7715 275.073 59.5637 275.597 63.7482C276.251 67.8019 276.578 71.7249 276.578 75.5171C276.578 77.8709 276.513 80.4862 276.382 83.363C276.251 86.1091 276.12 88.9859 275.989 91.9935C275.858 94.8704 275.727 97.8126 275.597 100.82C275.466 103.697 275.4 106.378 275.4 108.862C275.4 109.908 275.466 111.412 275.597 113.374C275.727 115.204 276.055 117.035 276.578 118.866C277.101 120.697 277.952 122.331 279.13 123.77C280.307 125.077 282.008 125.731 284.233 125.731C287.243 125.731 289.925 124.031 292.281 120.631C294.767 117.231 296.795 111.804 298.365 104.351H305.628C304.188 112.589 302.356 119.127 300.132 123.966C297.907 128.673 295.552 132.269 293.066 134.754C290.579 137.238 288.093 138.808 285.607 139.461C283.121 140.246 280.831 140.638 278.737 140.638C274.55 140.638 271.017 139.854 268.138 138.285C265.259 136.585 262.904 134.362 261.072 131.615C259.24 128.869 257.866 125.666 256.95 122.004C256.165 118.343 255.772 114.551 255.772 110.628C255.772 109.451 255.772 107.293 255.772 104.155C255.903 100.886 255.968 97.4203 255.968 93.7589C256.099 90.0974 256.165 86.6321 256.165 83.363C256.296 80.0939 256.361 77.8055 256.361 76.4978C256.361 72.3133 256.034 68.848 255.38 66.102C254.725 63.3559 253.809 61.1983 252.632 59.6291C251.454 58.0599 250.08 56.9484 248.51 56.2945C247.07 55.6407 245.5 55.3138 243.799 55.3138C239.742 55.3138 236.209 56.9484 233.2 60.2175C230.321 63.4866 227.966 68.9788 226.134 76.694V139.461H206.505V41.3873H226.134Z" fill="#FFEBDA"/>
<path d="M370.557 2.15763V108.078C370.557 109.385 370.623 111.02 370.753 112.981C370.884 114.943 371.211 116.904 371.735 118.866C372.389 120.697 373.305 122.331 374.483 123.77C375.661 125.077 377.296 125.731 379.39 125.731C385.802 125.731 390.513 118.604 393.522 104.351H400.785C399.345 112.589 397.513 119.127 395.289 123.966C393.064 128.673 390.709 132.269 388.223 134.754C385.736 137.238 383.185 138.808 380.568 139.461C377.95 140.246 375.595 140.638 373.501 140.638C370.492 140.638 367.875 140.115 365.65 139.069C363.556 138.023 361.725 136.65 360.154 134.95C358.715 133.25 357.537 131.289 356.621 129.066C355.705 126.843 354.985 124.489 354.462 122.004C352.499 127.104 349.293 131.485 344.844 135.146C340.526 138.808 335.226 140.638 328.945 140.638C325.02 140.638 321.029 139.854 316.972 138.285C313.047 136.715 309.448 134.165 306.177 130.635C303.036 126.973 300.419 122.331 298.325 116.708C296.363 110.955 295.381 103.959 295.381 95.7203C295.381 89.7051 296.036 83.4284 297.344 76.8901C298.783 70.3518 301.008 64.402 304.018 59.0406C307.027 53.6792 310.887 49.2332 315.598 45.7025C320.309 42.1719 326.001 40.4065 332.675 40.4065C334.245 40.4065 335.881 40.6027 337.582 40.995C339.414 41.2565 341.115 41.7796 342.685 42.5642C344.386 43.3488 345.957 44.4603 347.396 45.8987C348.835 47.2063 350.013 48.8409 350.929 50.8024V4.9037L370.557 2.15763ZM333.852 125.731C335.815 125.731 337.778 125.208 339.741 124.162C341.835 122.985 343.667 121.481 345.237 119.65C346.938 117.689 348.312 115.401 349.359 112.785C350.406 110.17 350.929 107.358 350.929 104.351V59.6291C350.013 57.5368 348.574 55.6407 346.611 53.9408C344.779 52.1101 342.358 51.1947 339.348 51.1947C335.161 51.1947 331.563 52.6331 328.553 55.5099C325.543 58.256 323.122 61.7867 321.29 66.102C319.458 70.2865 318.085 74.9286 317.169 80.0285C316.383 84.9976 315.991 89.7705 315.991 94.3473C315.991 105.593 317.496 113.635 320.505 118.474C323.646 123.312 328.095 125.731 333.852 125.731Z" fill="#FFEBDA"/>
<path d="M413.219 41.3873V108.078C413.219 109.385 413.285 111.02 413.416 112.981C413.546 114.943 413.874 116.904 414.397 118.866C415.051 120.697 415.967 122.331 417.145 123.77C418.323 125.077 419.958 125.731 422.052 125.731C428.464 125.731 433.175 118.604 436.184 104.351H443.447C442.007 112.589 440.175 119.127 437.951 123.966C435.726 128.673 433.371 132.269 430.885 134.754C428.398 137.238 425.847 138.808 423.23 139.461C420.613 140.246 418.257 140.638 416.164 140.638C411.584 140.638 407.854 139.788 404.976 138.088C402.097 136.258 399.807 133.969 398.106 131.223C396.405 128.477 395.227 125.404 394.573 122.004C393.918 118.604 393.591 115.335 393.591 112.197V41.3873H413.219ZM390.058 13.1419C390.058 9.61126 391.301 6.53828 393.787 3.92296C396.274 1.30765 399.349 0 403.013 0C406.546 0 409.621 1.30765 412.238 3.92296C414.855 6.53828 416.164 9.61126 416.164 13.1419C416.164 16.8034 414.855 19.8764 412.238 22.3609C409.621 24.8454 406.546 26.0877 403.013 26.0877C399.349 26.0877 396.274 24.8454 393.787 22.3609C391.301 19.8764 390.058 16.8034 390.058 13.1419Z" fill="#FFEBDA"/>
<path d="M455.576 41.3873V56.2945C457.539 52.7639 459.502 49.9524 461.465 47.8602C463.559 45.6372 465.652 44.0026 467.746 42.9565C469.84 41.9103 471.802 41.2565 473.634 40.995C475.597 40.6027 477.429 40.4065 479.13 40.4065C485.019 40.4065 489.729 41.518 493.263 43.7411C496.926 45.9641 499.674 48.8409 501.506 52.3716C503.338 55.7715 504.516 59.5637 505.039 63.7482C505.694 67.8019 506.021 71.7249 506.021 75.5171C506.021 77.8709 505.955 80.4862 505.825 83.363C505.694 86.1091 505.563 88.9859 505.432 91.9935C505.301 94.8704 505.17 97.8126 505.039 100.82C504.909 103.697 504.843 106.378 504.843 108.862C504.843 109.908 504.909 111.412 505.039 113.374C505.17 115.204 505.497 117.035 506.021 118.866C506.544 120.697 507.395 122.331 508.572 123.77C509.75 125.077 511.451 125.731 513.676 125.731C516.685 125.731 519.368 124.031 521.723 120.631C524.21 117.231 526.238 111.804 527.808 104.351H535.071C533.631 112.589 531.799 119.127 529.575 123.966C527.35 128.673 524.995 132.269 522.509 134.754C520.022 137.238 517.536 138.808 515.05 139.461C512.564 140.246 510.274 140.638 508.18 140.638C503.993 140.638 500.46 139.854 497.581 138.285C494.702 136.585 492.347 134.362 490.515 131.615C488.683 128.869 487.309 125.666 486.393 122.004C485.608 118.343 485.215 114.551 485.215 110.628C485.215 109.451 485.215 107.293 485.215 104.155C485.346 100.886 485.411 97.4203 485.411 93.7589C485.542 90.0974 485.608 86.6321 485.608 83.363C485.738 80.0939 485.804 77.8055 485.804 76.4978C485.804 72.3133 485.477 68.848 484.822 66.102C484.168 63.3559 483.252 61.1983 482.074 59.6291C480.897 58.0599 479.523 56.9484 477.953 56.2945C476.513 55.6407 474.943 55.3138 473.242 55.3138C469.185 55.3138 465.652 56.9484 462.643 60.2175C459.764 63.4866 457.408 68.9788 455.576 76.694V139.461H435.948V41.3873H455.576Z" fill="#FFEBDA"/>
<path d="M600 41.3873V154.957C600 161.103 599.346 166.268 598.037 170.453C596.729 174.768 594.897 178.233 592.541 180.849C590.317 183.595 587.7 185.556 584.69 186.733C581.811 187.91 578.736 188.498 575.465 188.498C568.922 188.498 563.819 186.602 560.155 182.81C556.491 179.149 554.659 174.637 554.659 169.276C554.659 165.876 555.379 162.803 556.818 160.057C558.388 157.311 560.351 154.761 562.706 152.407C565.193 150.184 567.941 148.157 570.95 146.327C574.091 144.627 577.231 143.123 580.372 141.815V124.946C577.886 128.346 574.745 131.158 570.95 133.381C567.286 135.604 563.099 136.715 558.388 136.715C554.463 136.715 550.471 135.996 546.415 134.558C542.489 132.989 538.891 130.504 535.62 127.104C532.479 123.704 529.862 119.258 527.768 113.766C525.805 108.274 524.824 101.605 524.824 93.7589C524.824 87.8744 525.478 81.7938 526.787 75.5171C528.226 69.2403 530.451 63.552 533.46 58.4522C536.47 53.2216 540.33 48.9063 545.041 45.5064C549.752 42.1065 555.444 40.4065 562.118 40.4065C563.688 40.4065 565.324 40.6027 567.025 40.995C568.857 41.2565 570.558 41.7796 572.128 42.5642C573.829 43.3488 575.399 44.4603 576.839 45.8987C578.278 47.2063 579.456 48.8409 580.372 50.8024V41.3873H600ZM563.295 121.808C565.258 121.808 567.221 121.285 569.184 120.239C571.277 119.193 573.109 117.754 574.68 115.924C576.381 114.093 577.755 111.935 578.802 109.451C579.848 106.966 580.372 104.285 580.372 101.409V59.6291C579.456 57.5368 578.016 55.6407 576.054 53.9408C574.222 52.1101 571.801 51.1947 568.791 51.1947C564.604 51.1947 561.005 52.5677 557.996 55.3138C554.986 57.9291 552.565 61.2636 550.733 65.3174C548.901 69.3711 547.527 73.8171 546.611 78.6554C545.826 83.4938 545.434 88.0706 545.434 92.3858C545.434 102.978 546.938 110.562 549.948 115.139C553.089 119.585 557.538 121.808 563.295 121.808ZM571.735 178.299C575.268 178.299 577.558 176.926 578.605 174.18C579.783 171.564 580.372 167.968 580.372 163.391V149.661C573.829 152.669 569.184 155.611 566.436 158.488C563.688 161.495 562.314 164.83 562.314 168.491C562.314 171.499 563.099 173.853 564.669 175.553C566.37 177.383 568.726 178.299 571.735 178.299Z" fill="#FFEBDA"/>
<path d="M258.154 234.855C259.2 233.939 259.986 232.501 260.509 230.54C261.163 228.447 261.49 226.486 261.49 224.655C261.49 221.648 260.509 219.163 258.546 217.201C256.714 215.24 254.097 214.259 250.695 214.259C247.162 214.259 244.218 215.567 241.862 218.182C239.507 220.798 237.609 224.132 236.17 228.186C234.731 232.109 233.684 236.555 233.03 241.524C232.506 246.362 232.244 251.135 232.244 255.843C232.244 262.773 232.833 268.396 234.011 272.711C235.319 277.027 237.021 280.427 239.114 282.911C241.208 285.265 243.629 286.899 246.377 287.815C249.255 288.73 252.265 289.188 255.406 289.188C262.341 289.188 268.164 287.488 272.875 284.088C277.716 280.557 281.838 275.131 285.241 267.808H291.914C290.344 272.646 288.119 277.288 285.241 281.734C282.362 286.05 279.025 289.907 275.23 293.307C271.435 296.576 267.313 299.191 262.864 301.153C258.415 303.114 253.77 304.095 248.928 304.095C244.348 304.095 239.834 303.311 235.385 301.741C230.936 300.172 226.945 297.622 223.412 294.092C219.879 290.43 217 285.723 214.775 279.969C212.551 274.084 211.439 266.892 211.439 258.393C211.439 252.9 211.897 247.016 212.812 240.739C213.859 234.332 215.691 228.447 218.308 223.086C221.056 217.594 224.786 213.017 229.496 209.356C234.207 205.694 240.292 203.863 247.751 203.863C255.995 203.863 262.276 205.89 266.594 209.944C270.912 213.867 273.071 219.686 273.071 227.401C273.071 230.67 272.417 233.416 271.108 235.639C269.931 237.862 268.033 238.974 265.416 238.974C262.537 238.974 260.116 237.601 258.154 234.855Z" fill="#FFEBDA"/>
<path d="M321.014 203.863C326.118 203.863 330.501 204.648 334.165 206.217C337.829 207.786 340.839 210.009 343.194 212.886C345.55 215.632 347.382 218.901 348.69 222.694C350.13 226.486 351.176 230.54 351.831 234.855H353.008C358.504 234.855 363.542 233.743 368.122 231.52C372.702 229.297 376.628 226.486 379.899 223.086L382.843 228.382C380.226 232.566 376.039 236.032 370.281 238.778C364.654 241.524 358.831 243.42 352.812 244.466C352.812 245.774 352.812 247.081 352.812 248.389C352.943 249.697 353.008 251.07 353.008 252.508C353.008 268.592 350.064 281.211 344.176 290.365C338.287 299.518 330.043 304.095 319.444 304.095C315.126 304.095 310.742 303.311 306.293 301.741C301.975 300.172 298.049 297.557 294.516 293.895C290.983 290.234 288.104 285.526 285.88 279.773C283.786 274.019 282.739 266.892 282.739 258.393C282.739 252.639 283.328 246.558 284.506 240.151C285.815 233.743 287.908 227.859 290.787 222.497C293.797 217.136 297.722 212.69 302.564 209.159C307.536 205.629 313.687 203.863 321.014 203.863ZM322.977 289.188C329.913 289.188 335.016 285.788 338.287 278.988C341.559 272.058 343.194 262.316 343.194 249.762C343.194 248.977 343.194 248.193 343.194 247.408C343.194 246.624 343.129 245.839 342.998 245.055C339.203 244.793 336.455 243.943 334.754 242.505C333.184 241.066 332.399 238.647 332.399 235.247C332.399 232.24 333.053 230.147 334.362 228.97C335.67 227.663 337.633 226.944 340.25 226.813C338.68 222.236 336.652 219.098 334.165 217.398C331.81 215.567 329.127 214.652 326.118 214.652C322.061 214.652 318.594 216.025 315.715 218.771C312.967 221.386 310.677 224.786 308.845 228.97C307.144 233.155 305.901 237.797 305.116 242.897C304.33 247.866 303.938 252.77 303.938 257.608C303.938 264.016 304.527 269.246 305.704 273.3C306.882 277.354 308.387 280.557 310.219 282.911C312.051 285.265 314.079 286.899 316.304 287.815C318.528 288.73 320.753 289.188 322.977 289.188Z" fill="#FFEBDA"/>
<path d="M396.965 155.807C401.937 155.807 406.386 156.853 410.312 158.945C414.368 161.038 417.509 164.699 419.733 169.93C422.22 165.353 425.557 161.888 429.744 159.534C433.931 157.049 438.773 155.807 444.269 155.807C448.063 155.807 451.597 156.396 454.868 157.572C458.27 158.749 461.149 160.58 463.504 163.065C465.991 165.549 467.888 168.622 469.196 172.284C470.636 175.945 471.356 180.26 471.356 185.229H463.701C462.915 179.999 461.476 175.88 459.382 172.872C457.42 169.864 454.083 168.361 449.372 168.361C446.232 168.361 443.745 169.08 441.913 170.518C440.081 171.826 438.642 173.657 437.595 176.01C436.548 178.364 435.829 181.241 435.436 184.641C435.174 187.91 435.043 191.506 435.043 195.429V204.844H450.942V211.709H435.043V318.61C435.043 325.541 434.193 331.164 432.492 335.479C430.791 339.794 428.566 343.194 425.818 345.679C423.201 348.163 420.257 349.798 416.986 350.582C413.714 351.498 410.508 351.955 407.368 351.955C401.61 351.955 396.899 350.778 393.235 348.425C389.702 346.202 386.562 343.129 383.814 339.206C381.589 344.044 378.645 347.379 374.981 349.209C371.317 351.04 367.195 351.955 362.615 351.955C355.418 351.955 350.184 350.255 346.913 346.855C343.511 343.586 341.81 339.467 341.81 334.498C341.81 328.221 344.23 322.729 349.072 318.022C353.783 313.314 359.867 309.26 367.326 305.86V189.937C367.326 178.56 370.074 170.061 375.57 164.438C381.066 158.684 388.197 155.807 396.965 155.807ZM386.954 298.799C391.665 297.361 396.441 296.118 401.283 295.072C406.125 294.026 410.835 293.045 415.415 292.13V211.709H386.954V298.799ZM415.415 298.603C409.919 299.649 404.816 300.761 400.105 301.938C395.395 302.984 391.011 304.095 386.954 305.272V318.61C386.954 324.102 386.562 328.81 385.777 332.733C390.487 338.748 395.918 341.756 402.068 341.756C403.769 341.756 405.405 341.494 406.975 340.971C408.676 340.448 410.116 339.336 411.293 337.636C412.602 336.067 413.583 333.779 414.238 330.771C415.023 327.764 415.415 323.841 415.415 319.002V298.603ZM386.954 204.844H415.415V189.937C415.415 181.699 414.238 176.076 411.882 173.068C409.658 169.93 406.321 168.361 401.872 168.361C398.6 168.361 395.983 169.014 394.021 170.322C392.058 171.63 390.553 173.526 389.506 176.01C388.459 178.364 387.74 181.241 387.347 184.641C387.085 187.91 386.954 191.506 386.954 195.429V204.844ZM358.494 341.756C362.288 341.756 364.709 339.729 365.756 335.675C366.803 331.621 367.326 326.064 367.326 319.002V313.118C361.307 316.126 356.858 319.264 353.979 322.533C350.969 325.933 349.465 329.202 349.465 332.34C349.465 334.956 350.315 337.179 352.016 339.01C353.717 340.84 355.876 341.756 358.494 341.756Z" fill="#FFEBDA"/>
<path d="M523.836 229.363C523.836 238.516 520.042 246.166 512.452 252.312C504.993 258.458 494.59 262.25 481.243 263.689C481.767 268.919 482.683 273.169 483.991 276.438C485.431 279.707 487.132 282.323 489.095 284.284C491.057 286.115 493.282 287.423 495.768 288.207C498.385 288.861 501.068 289.188 503.816 289.188C510.097 289.188 515.985 287.553 521.481 284.284C526.977 281.015 531.426 275.523 534.828 267.808H541.109C539.408 272.646 537.053 277.288 534.043 281.734C531.033 286.05 527.5 289.907 523.444 293.307C519.387 296.576 515.004 299.191 510.293 301.153C505.582 303.114 500.741 304.095 495.768 304.095C491.188 304.095 486.739 303.311 482.421 301.741C478.234 300.172 474.504 297.622 471.233 294.092C467.962 290.43 465.279 285.723 463.185 279.969C461.223 274.215 460.241 267.154 460.241 258.785C460.241 253.293 460.83 247.343 462.008 240.935C463.316 234.528 465.41 228.578 468.289 223.086C471.298 217.594 475.159 213.017 479.869 209.356C484.711 205.694 490.665 203.863 497.731 203.863C501.002 203.863 504.143 204.256 507.152 205.04C510.293 205.694 513.106 207.002 515.593 208.963C518.079 210.794 520.042 213.344 521.481 216.613C523.051 219.882 523.836 224.132 523.836 229.363ZM481.047 256.039C490.338 254.6 497.666 251.331 503.031 246.231C508.526 241.132 511.274 234.855 511.274 227.401C511.274 222.432 510.424 218.901 508.723 216.809C507.022 214.586 504.601 213.475 501.46 213.475C498.058 213.475 495.048 214.782 492.431 217.398C489.945 220.013 487.851 223.413 486.15 227.597C484.449 231.651 483.141 236.228 482.225 241.328C481.44 246.297 481.047 251.201 481.047 256.039Z" fill="#FFEBDA"/>
<path d="M596.1 229.363C596.1 238.516 592.306 246.166 584.716 252.312C577.257 258.458 566.854 262.25 553.507 263.689C554.031 268.919 554.947 273.169 556.255 276.438C557.695 279.707 559.396 282.323 561.358 284.284C563.321 286.115 565.546 287.423 568.032 288.207C570.649 288.861 573.332 289.188 576.08 289.188C580.267 289.188 584.193 288.469 587.857 287.03C591.651 285.592 594.792 283.107 597.278 279.577C597.409 280.492 597.474 281.407 597.474 282.323C597.605 283.107 597.671 283.826 597.671 284.48C597.671 287.488 596.886 290.169 595.315 292.522C593.876 294.876 591.848 296.968 589.231 298.799C586.744 300.499 583.8 301.807 580.398 302.722C577.126 303.637 573.659 304.095 569.995 304.095C565.546 304.095 561.097 303.311 556.648 301.741C552.199 300.041 548.142 297.426 544.478 293.895C540.945 290.234 538.066 285.526 535.842 279.773C533.617 274.019 532.505 267.023 532.505 258.785C532.505 253.293 533.094 247.343 534.272 240.935C535.58 234.528 537.674 228.578 540.553 223.086C543.562 217.594 547.422 213.017 552.133 209.356C556.975 205.694 562.929 203.863 569.995 203.863C573.266 203.863 576.407 204.256 579.416 205.04C582.557 205.694 585.37 207.002 587.857 208.963C590.343 210.794 592.306 213.344 593.745 216.613C595.315 219.882 596.1 224.132 596.1 229.363ZM553.311 256.039C562.602 254.6 569.929 251.331 575.295 246.231C580.79 241.132 583.538 234.855 583.538 227.401C583.538 222.432 582.688 218.901 580.987 216.809C579.286 214.586 576.865 213.475 573.724 213.475C570.322 213.475 567.312 214.782 564.695 217.398C562.209 220.013 560.115 223.413 558.414 227.597C556.713 231.651 555.405 236.228 554.489 241.328C553.704 246.297 553.311 251.201 553.311 256.039Z" fill="#FFEBDA"/>
</svg>
